# AST/ASF file generated using VICON BodyLanguage
# -----------------------------------------------
:version 1.10
:name VICON
:units
  mass 1.0
  length 0.45
  angle deg
:documentation
   .ast/.asf automatically generated from VICON data using
   VICON BodyBuilder and BodyLanguage model FoxedUp or BRILLIANT.MOD
:root
   order TX TY TZ RX RY RZ
   axis XYZ
   position 0 0 0  
   orientation 0 0 0 
:bonedata
  begin
     id 1 
     name lhipjoint
     direction 0.573633 -0.743009 0.344793 
     length 2.46257 
     axis 0 0 0  XYZ
  end
  begin
     id 2 
     name lfemur
     direction 0.34202 -0.939693 0  
     length 7.3842  
     axis 0 0 20  XYZ
    dof rx ry rz
    limits (-160.0 20.0)
           (-70.0 70.0)
           (-60.0 70.0)
  end
  begin
     id 3 
     name ltibia
     direction 0.34202 -0.939693 0   
     length 7.50407   
     axis 0 0 20   XYZ
    dof rx
    limits (-10.0 170.0)
  end
  begin
     id 4 
     name lfoot
     direction 0.110749 -0.304281 0.946123   
     length 1.95925   
     axis -90 7.62852e-016 20   XYZ
    dof rx rz
    limits (-45.0 90.0)
           (-70.0 20.0)
  end
  begin
     id 5 
     name ltoes
     direction 1.53554e-011 -4.21843e-011 1   
     length 0.978318   
     axis -90 7.62852e-016 20   XYZ
    dof rx
    limits (-90.0 20.0)
  end
  begin
     id 6 
     name rhipjoint
     direction -0.488109 -0.791693 0.367385   
     length 2.31113  
     axis 0 0 0  XYZ 
  end
  begin
     id 7 
     name rfemur
     direction -0.34202 -0.939693 0   
     length 7.40965   
     axis 0 0 -20   XYZ
    dof rx ry rz
    limits (-160.0 20.0)
           (-70.0 70.0)
           (-70.0 60.0)
  end
  begin
     id 8 
     name rtibia
     direction -0.34202 -0.939693 0   
     length 7.55548   
     axis 0 0 -20   XYZ
    dof rx
    limits (-10.0 170.0)
 end
 begin
     id 9 
     name rfoot
     direction -0.127594 -0.350561 0.927808   
     length 2.07199  
     axis -90 -7.62852e-016 -20   XYZ
    dof rx rz
    limits (-45.0 90.0)
           (-20.0 70.0)
  end
  begin
     id 10 
     name rtoes
     direction -1.53542e-011 -4.21909e-011 1   
     length 1.02667   
     axis -90 -7.62852e-016 -20   XYZ
    dof rx
    limits (-90.0 20.0)
  end
  begin
     id 11 
     name lowerback
     direction -0.0103342 0.997298 -0.0727278   
     length 2.02836   
     axis 0 0 0   XYZ
    dof rx ry rz
    limits (-20.0 45.0)
           (-30.0 30.0)
           (-30.0 30.0)
  end
  begin
     id 12 
     name upperback
     direction 0.0171146 0.999786 -0.011606   
     length 2.03179   
     axis 0 0 0   XYZ
    dof rx ry rz
    limits (-20.0 45.0)
           (-30.0 30.0)
           (-30.0 30.0)
  end
  begin
     id 13 
     name thorax
     direction 0.0216927 0.999513 0.0224343   
     length 2.03882   
     axis 0 0 0   XYZ
    dof rx ry rz
    limits (-20.0 45.0)
           (-30.0 30.0)
           (-30.0 30.0)
  end
  begin
     id 14 
     name lowerneck
     direction 0.000989287 0.993907 0.110221   
     length 1.75428   
     axis 0 0 0   XYZ
    dof rx ry rz
    limits (-20.0 45.0)
           (-30.0 30.0)
           (-30.0 30.0)
  end
  begin
     id 15 
     name upperneck
     direction -0.0172474 0.994813 -0.100253   
     length 1.77058   
     axis 0 0 0   XYZ
    dof rx ry rz
    limits (-20.0 45.0)
           (-30.0 30.0)
           (-30.0 30.0)
  end
  begin
     id 16
     name head
     direction -0.00486455 0.99894 -0.0457663  
     length 1.77427  
     axis 0 0 0   XYZ
    dof rx ry rz
    limits (-20.0 45.0)
           (-30.0 30.0)
           (-30.0 30.0)
  end
  begin
     id 17 
     name lclavicle
     direction 0.927314 0.333734 -0.169441  
     length 3.97584  
     axis 0 0 0   XYZ
    dof ry rz
    limits (-20.0 10.0)
           (0.0 20.0)
  end
  begin
     id 18 
     name lhumerus
     direction 1 -4.48965e-011 -3.25313e-028   
     length 4.76468   
     axis 180 -30 -90   XYZ
    dof rx ry rz
    limits (-60.0 90.0)
           (-90.0 90.0)
           (-90.0 90.0)
  end
  begin
     id 19
     name lradius
     direction 1 -4.48969e-011 -2.8465e-028   
     length 3.52712   
     axis -180 -30 -90   XYZ
    dof rx
    limits (-10.0 170.0)
  end
  begin
     id 20
     name lwrist
     direction 1 -4.4896e-011 -7.78665e-028   
     length 1.76356   
     axis 1.91374e-015 90 90   XYZ
    dof ry
    limits (-180.0 0.0)
 end
  begin
     id 21 
     name lhand
     direction 1 -4.48959e-011 -1.55733e-027   
     length 0.859564   
     axis 9.9371e-016 90 90   XYZ
    dof rx rz
    limits (-90.0 90.0)
           (-45.0 45.0)
  end
  begin
     id 22 
     name lfingers
     direction 1 -4.48965e-011 -3.11466e-027   
     length 0.693002   
     axis 1.98742e-015 90 90   XYZ
    dof rx
    limits (0.0 90.0)
  end
  begin
     id 23
     name lthumb
     direction 0.707107 -6.34948e-011 0.707107   
     length 0.995017   
     axis -90 45 2.85299e-015   XYZ
    dof rx rz
    limits (-45.0 45.0)
           (-45.0 45.0)
  end
  begin
     id 24 
     name rclavicle
     direction -0.899388 0.348209 -0.264294   
     length 3.68366  
     axis 0 0 0   XYZ 
    dof ry rz
    limits (-10.0 20.0)
           (-20.0 0.0)
  end
  begin
     id 25 
     name rhumerus
     direction -1 -4.48965e-011 -3.01536e-027  
     length 4.90577   
     axis 180 30 90   XYZ
    dof rx ry rz
    limits (-90.0 60.0)
           (-90.0 90.0)
           (-90.0 90.0)
  end
  begin
     id 26 
     name rradius
     direction -1 -4.48966e-011 3.93291e-027   
     length 3.42692   
     axis -180 30 90   XYZ
    dof rx
    limits (-10.0 170.0)
  end
  begin
     id 27 
     name rwrist
     direction -1 -4.48969e-011 -7.78665e-028   
     length 1.71346   
     axis 1.91374e-015 -90 -90   XYZ
    dof ry
    limits (-180.0 0.0)
  end
  begin
     id 28
     name rhand
     direction -1 -4.48967e-011 -1.55733e-027   
     length 0.740957   
     axis 9.9371e-016 -90 -90   XYZ
    dof rx rz
    limits (-90.0 90.0)
           (-45.0 45.0)
  end
  begin
     id 29
     name rfingers
     direction -1 -4.48949e-011 -3.11466e-027   
     length 0.597378   
     axis 1.98742e-015 -90 -90   XYZ
    dof rx
    limits (0.0 90.0)
  end
  begin
     id 30
     name rthumb
     direction -0.707107 -6.34931e-011 0.707107   
     length 0.857719   
     axis -90 -45 -2.85299e-015   XYZ
    dof rx rz
    limits (-45.0 45.0)
           (-45.0 45.0)
  end
:hierarchy
  begin
    root lhipjoint rhipjoint lowerback
    lhipjoint lfemur
    lfemur ltibia
    ltibia lfoot
    lfoot ltoes
    rhipjoint rfemur
    rfemur rtibia
    rtibia rfoot
    rfoot rtoes
    lowerback upperback
    upperback thorax
    thorax lowerneck lclavicle rclavicle
    lowerneck upperneck
    upperneck head
    lclavicle lhumerus
    lhumerus lradius
    lradius lwrist
    lwrist lhand lthumb
    lhand lfingers
    rclavicle rhumerus
    rhumerus rradius
    rradius rwrist
    rwrist rhand rthumb
    rhand rfingers
  end

#!OML:ASF E:\I on waltz\AllaLogoMonkeySwing\Project 1\Capture day 1\Session 1\Subject1.ASF
:FULLY-SPECIFIED
:DEGREES
160
root -0.116691 14.745 -4.54192 16.1032 10.6077 -1.81793
lowerback 26.8109 1.5767 2.2244
upperback 3.95514 2.98897 2.54036
thorax -10.4977 1.36414 0.528264
lowerneck -8.22017 13.4217 9.2904
upperneck -3.77565 17.5554 -18.6317
head 2.78177 8.54044 -5.91788
rclavicle 2.98177e-014 -1.03368e-014
rhumerus -19.3675 -7.79638 -85.0367
rradius 53.7418
rwrist -4.16208
rhand -13.7391 -40.0653
rfingers 7.12502
rthumb 12.3807 -69.6787
lclavicle 2.98177e-014 -1.03368e-014
lhumerus -40.5721 9.95943 76.2908
lradius 53.1849
lwrist 18.6785
lhand -14.9242 -20.424
lfingers 7.12502
lthumb 11.2379 9.25496
rfemur -55.0607 -13.4511 28.1744
rtibia 78.8982
rfoot -36.8006 -18.2455
rtoes 10.7833
lfemur -55.0035 1.09178 -17.2268
ltibia 76.5913
lfoot -36.0434 0.136265
ltoes -21.4909
161
root -0.213872 14.8461 -4.40518 15.5063 14.1236 -1.73954
lowerback 25.7409 2.03638 3.08156
upperback 3.94542 3.81905 2.82329
thorax -9.91645 1.74165 0.102526
lowerneck -8.79217 13.653 8.7432
upperneck -3.5931 17.9224 -18.4385
head 2.90408 8.70235 -5.69766
rclavicle -7.95139e-015 -1.11319e-014
rhumerus -19.2273 -4.28967 -84.3869
rradius 56.371
rwrist -4.00778
rhand -13.6917 -37.9397
rfingers 7.12502
rthumb 12.4263 -67.5503
lclavicle -7.95139e-015 -1.11319e-014
lhumerus -42.2894 9.86376 75.3287
lradius 53.3009
lwrist 17.4345
lhand -15.8487 -20.2642
lfingers 7.12502
lthumb 10.3461 9.46129
rfemur -53.1958 -16.1132 28.807
rtibia 77.6769
rfoot -37.2011 -18.8478
rtoes 11.0735
lfemur -53.6295 -1.23885 -16.2048
ltibia 75.3015
lfoot -36.098 -1.21323
ltoes -22.693
162
root -0.316025 15.046 -4.2321 14.8997 17.6614 -1.62237
lowerback 24.6068 2.75477 3.71434
upperback 3.64753 4.90574 3.02023
thorax -9.60951 2.24439 -0.349021
lowerneck -7.73936 13.7307 10.0671
upperneck -4.13908 18.0394 -20.5842
head 2.95839 8.80865 -6.57626
rclavicle 4.53229e-014 5.08889e-014
rhumerus -20.4928 -1.6287 -83.4252
rradius 59.7365
rwrist -3.08849
rhand -12.8685 -36.0003
rfingers 7.12502
rthumb 13.22 -65.5611
lclavicle 4.53229e-014 5.08889e-014
lhumerus -44.4353 9.06558 74.2117
lradius 54.3716
lwrist 15.5639
lhand -16.567 -19.7048
lfingers 7.12502
lthumb 9.65316 10.054
rfemur -50.636 -18.9888 29.2137
rtibia 75.3478
rfoot -37.1474 -18.9317
rtoes 12.1988
lfemur -51.4783 -2.88852 -15.3419
ltibia 72.6254
lfoot -35.3889 -3.07688
ltoes -23.0278
163
root -0.420783 15.3598 -4.02113 14.0462 21.7922 -1.53484
lowerback 23.9613 3.45241 4.2386
upperback 3.33683 5.97726 3.36701
thorax -9.58002 2.74119 -0.569525
lowerneck -9.21 13.9521 9.77678
upperneck -2.34734 18.536 -20.1549
head 3.71923 8.89948 -6.1921
rclavicle -7.95139e-015 1.74931e-014
rhumerus -21.9848 0.870085 -82.22
rradius 62.7557
rwrist -2.61079
rhand -12.5352 -34.0523
rfingers 7.12502
rthumb 13.5412 -63.592
lclavicle -7.95139e-015 1.74931e-014
lhumerus -46.3 8.57851 73.1351
lradius 56.0949
lwrist 14.311
lhand -15.7646 -19.2687
lfingers 7.12502
lthumb 10.4273 10.4527
rfemur -46.7576 -22.5128 29.4008
rtibia 71.3517
rfoot -36.1315 -18.6878
rtoes 13.2209
lfemur -48.2702 -4.39952 -14.4612
ltibia 68.3488
lfoot -34.1636 -5.89012
ltoes -22.1337
164
root -0.531483 15.8012 -3.77512 13.3524 26.7703 -1.23137
lowerback 23.533 4.06568 4.80978
upperback 2.68511 6.97774 3.61529
thorax -10.0235 3.17928 -0.916561
lowerneck -9.88407 13.8197 9.79852
upperneck -0.794884 18.5439 -19.9164
head 4.26661 8.79732 -6.03963
rclavicle 5.1684e-014 1.59028e-015
rhumerus -23.6711 2.31136 -80.7993
rradius 64.2281
rwrist -2.34671
rhand -13.2576 -32.8726
rfingers 7.12502
rthumb 12.8449 -62.4574
lclavicle 5.1684e-014 1.59028e-015
lhumerus -47.8544 6.9585 72.0928
lradius 58.2575
lwrist 14.5491
lhand -15.1259 -18.9658
lfingers 7.12502
lthumb 11.0433 10.7237
rfemur -41.9192 -26.529 29.2151
rtibia 65.7759
rfoot -33.8571 -18.2613
rtoes 13.6861
lfemur -44.4437 -5.97179 -13.7564
ltibia 62.6109
lfoot -32.7878 -9.82054
ltoes -19.5196
165
root -0.622998 16.3008 -3.50545 12.2944 32.1117 -1.14908
lowerback 22.8099 4.35123 5.62389
upperback 2.14417 7.56923 3.73065
thorax -10.1363 3.42335 -1.38222
lowerneck -9.92465 13.7214 10.7727
upperneck 0.61658 18.5823 -20.4666
head 4.86039 8.73059 -6.30326
rclavicle -6.52014e-014 -2.06736e-014
rhumerus -24.9714 3.99761 -80.0316
rradius 64.5516
rwrist -2.80802
rhand -14.9119 -31.6824
rfingers 7.12502
rthumb 11.2497 -61.3607
lclavicle -6.52014e-014 -2.06736e-014
lhumerus -49.2306 7.43135 69.9132
lradius 59.9181
lwrist 14.0601
lhand -13.7004 -19.7013
lfingers 7.12502
lthumb 12.418 9.90983
rfemur -36.0421 -30.2116 28.6291
rtibia 59.3162
rfoot -31.1274 -17.0364
rtoes 16.7184
lfemur -39.7222 -7.03461 -12.9636
ltibia 55.2789
lfoot -28.8781 -13.9634
ltoes -21.0612
166
root -0.684049 16.8962 -3.21343 12.6148 37.3569 1.49726
lowerback 22.1515 4.70494 4.57469
upperback 1.909 7.69439 3.24697
thorax -10.102 3.52177 -1.32374
lowerneck -10.5534 13.6906 11.0372
upperneck 2.18633 18.7225 -20.3787
head 5.47605 8.69214 -6.22612
rclavicle -9.06458e-014 3.02153e-014
rhumerus -25.9705 3.42349 -79.3543
rradius 64.0519
rwrist -1.1107
rhand -13.1358 -32.7556
rfingers 7.12502
rthumb 12.9623 -62.333
lclavicle -9.06458e-014 3.02153e-014
lhumerus -49.5041 7.99346 67.4277
lradius 61.3726
lwrist 15.1696
lhand -12.019 -19.9909
lfingers 7.12502
lthumb 14.0387 9.51499
rfemur -29.8661 -32.5864 24.8616
rtibia 52.7591
rfoot -24.141 -17.6093
rtoes 10.5999
lfemur -33.7566 -8.28438 -14.927
ltibia 46.3455
lfoot -24.2021 -18.6169
ltoes -18.534
